<svg width="188.51" height="124.8" version="1.1" viewBox="0 0 188.51 124.8" xmlns="http://www.w3.org/2000/svg">
   <defs>
      <filter id="filter5834" x="-.0064136" y="-.09303" width="1.0128" height="1.1861" color-interpolation-filters="sRGB">
         <feGaussianBlur stdDeviation="0.21822303"/>
      </filter>
   </defs>
   <style type="text/css">.st0{fill:#DF035B;}
	.st1{fill:#529DBB;}
	.st2{fill:#4B013E;}
	.st3{fill:#553E70;}
	.st4{fill:#1D1D1B;}</style>
   <g>
      <g transform="matrix(.49141 0 0 .50004 -.34399 -.35003)">
         <path class="st0" d="m84.4 198v-2c0.8-0.2 1.6-0.7 2.2-1.3 1-1 1.5-2.2 1.5-3.7 0-1.4-0.5-2.7-1.5-3.7s-2.2-1.5-3.6-1.5c-1.3 0-2.5 0.5-3.5 1.5s-1.5 2.2-1.5 3.7c0 1.4 0.5 2.6 1.5 3.6 0.7 0.7 1.4 1.1 2.3 1.3v2c-1.4-0.3-2.6-0.9-3.7-1.9-1.4-1.4-2.1-3-2.1-4.9 0-2.2 0.8-4 2.3-5.3 1.4-1.2 3-1.8 4.7-1.8 2 0 3.7 0.7 5.1 2.1s2.1 3 2.1 5c0 1.9-0.7 3.6-2.1 5-1.1 1-2.3 1.6-3.7 1.9z"/>
         <polyline class="st0" points="81.9 185.9 81.9 150.8 84.2 150.8 84.2 185.9"/>
         <path class="st1" d="m124.6 181.4-1.4-1.4c-0.7 0.4-1.6 0.6-2.5 0.6-1.4 0-2.6-0.5-3.6-1.6-1-1-1.5-2.2-1.5-3.6s0.5-2.6 1.5-3.6c0.9-0.9 2.1-1.4 3.5-1.4s2.6 0.5 3.7 1.6c1 1 1.5 2.2 1.5 3.6 0 0.9-0.2 1.8-0.7 2.5l1.4 1.4c0.8-1.2 1.2-2.5 1.2-4 0-2-0.6-3.6-2-5-1.5-1.5-3.3-2.2-5.4-2.1-1.9 0.1-3.4 0.8-4.6 2.1-1.4 1.4-2.1 3.1-2.1 5.1s0.7 3.6 2 5c1.4 1.4 3.1 2.1 5 2.1 1.5-0.2 2.8-0.6 4-1.3z" clip-rule="evenodd" fill-rule="evenodd"/>
         <polyline class="st1" points="117.8 171 93 146.2 91.4 147.9 116.1 172.7" clip-rule="evenodd" fill-rule="evenodd"/>
      </g>
      <g transform="matrix(.49141 0 0 .50004 -.34399 -.35003)">
         <path class="st0" d="m81.7 77v2c-0.8 0.2-1.6 0.7-2.2 1.3-1 1-1.5 2.2-1.5 3.7 0 1.4 0.5 2.7 1.5 3.7s2.2 1.5 3.6 1.5c1.3 0 2.5-0.5 3.5-1.5s1.5-2.2 1.5-3.7c0-1.4-0.5-2.6-1.5-3.6-0.7-0.7-1.4-1.1-2.3-1.3v-2c1.4 0.3 2.6 0.9 3.7 1.9 1.4 1.4 2.1 3 2.1 4.9 0 2.2-0.8 4-2.3 5.3-1.4 1.2-3 1.8-4.7 1.8-2 0-3.7-0.7-5.1-2.1s-2.1-3-2.1-5c0-1.9 0.7-3.6 2.1-5 1.1-1 2.3-1.7 3.7-1.9z"/>
         <polyline class="st0" points="84.2 89.1 84.2 124.1 81.9 124.1 81.9 89.1"/>
         <path class="st1" d="m41.5 93.6 1.4 1.4c0.7-0.4 1.6-0.6 2.5-0.6 1.4 0 2.6 0.5 3.6 1.6 1 1 1.5 2.2 1.5 3.6s-0.5 2.6-1.5 3.6c-0.9 0.9-2.1 1.4-3.5 1.4s-2.6-0.5-3.7-1.6c-1-1-1.5-2.2-1.5-3.6 0-0.9 0.2-1.8 0.7-2.5l-1.4-1.4c-0.8 1.2-1.2 2.5-1.2 4 0 2 0.6 3.6 2 5 1.5 1.5 3.3 2.2 5.4 2.1 1.9-0.1 3.4-0.8 4.6-2.1 1.4-1.4 2.1-3.1 2.1-5.1s-0.7-3.6-2-5c-1.4-1.4-3.1-2.1-5-2.1-1.5 0.2-2.8 0.5-4 1.3z" clip-rule="evenodd" fill-rule="evenodd"/>
         <polyline class="st1" points="48.3 104 73.1 128.8 74.8 127.1 50 102.3" clip-rule="evenodd" fill-rule="evenodd"/>
      </g>
      <g transform="matrix(.67635 0 0 .50004 -25.108 -.35003)">
         <polyline class="st1" points="95.7 136.5 133.9 136.5 133.9 138.6 95.7 138.6" clip-rule="evenodd" fill-rule="evenodd"/>
      </g>
      <path class="st0" d="m87.864 23.402v0.95008c0.39313 0.10001 0.73711 0.30002 1.032 0.65005 0.44227 0.45004 0.68797 1.0501 0.68797 1.7501s-0.2457 1.3001-0.68797 1.7501c-0.44227 0.50004-1.032 0.70006-1.7199 0.70006-0.63883 0-1.1794-0.25002-1.6708-0.70006-0.49141-0.45004-0.73712-1.0501-0.73712-1.8001 0-0.70006 0.24571-1.3001 0.68798-1.7501 0.29484-0.30003 0.68796-0.55005 1.0811-0.65005v-0.95008c-0.63883 0.10001-1.2285 0.45004-1.7691 0.95008-0.68797 0.65005-0.98281 1.4501-0.98281 2.4002 0 1.0501 0.34398 1.9002 1.0811 2.5502 0.68797 0.60005 1.4251 0.90008 2.2605 0.90008 0.93367 0 1.7691-0.35003 2.4079-1.0001 0.68797-0.65005 0.98282-1.4501 0.98282-2.4002s-0.34399-1.7501-0.98282-2.4002c-0.44227-0.50004-1.032-0.80007-1.6708-0.95008z" stroke-width=".49571"/>
      <g transform="matrix(.49141 0 0 .50004 -.34399 -.35003)">
         <polyline class="st0" points="177 59.2 177 93 179.3 93 179.3 59.2"/>
      </g>
      <path class="st2" d="m107.81 32.403-0.68797 0.70006c0.19656 0.35003 0.29484 0.75006 0.29484 1.2001 0 0.65005-0.24569 1.2501-0.7371 1.7501-0.49142 0.50004-1.032 0.75006-1.7199 0.75006-0.63883 0-1.2285-0.25002-1.7199-0.75006-0.44227-0.45004-0.68797-1.0001-0.68797-1.7001s0.2457-1.2501 0.73711-1.8002c0.49141-0.50004 1.032-0.75006 1.7199-0.75006 0.44227 0 0.8354 0.10001 1.1794 0.30002l0.63884-0.65005c-0.54055-0.40003-1.1794-0.60005-1.8674-0.60005-0.93368 0-1.7199 0.30002-2.3588 0.95008-0.73711 0.75006-1.0811 1.6001-0.98282 2.6002 0.0491 0.90008 0.39313 1.6501 0.98282 2.2502 0.68797 0.70006 1.4742 1.0001 2.4079 1.0501 0.93368 0 1.7199-0.30002 2.3588-1.0001 0.63883-0.65005 0.98281-1.4501 0.98281-2.4002 0.0491-0.75006-0.14742-1.3501-0.54055-1.9002z" stroke-width=".49571"/>
      <g transform="matrix(.49141 0 0 .50004 -.34399 -.35003)">
         <polyline class="st2" points="210.2 72 186.3 95.9 187.8 97.5 211.8 73.6"/>
      </g>
      <path class="st1" d="m66.537 32.403 0.68797 0.70006c-0.19657 0.35003-0.29485 0.75006-0.29485 1.2001 0 0.65005 0.24571 1.2501 0.73712 1.7501 0.4914 0.50004 1.032 0.75006 1.7199 0.75006 0.63883 0 1.2285-0.25002 1.7199-0.75006 0.44227-0.45004 0.68797-1.0001 0.68797-1.7001s-0.2457-1.2501-0.73711-1.8002c-0.49141-0.50004-1.032-0.75006-1.7199-0.75006-0.44227 0-0.8354 0.10001-1.1794 0.30002l-0.63883-0.65005c0.54055-0.40003 1.1794-0.60005 1.8674-0.60005 0.93367 0 1.7199 0.30002 2.3588 0.95008 0.73712 0.75006 1.0811 1.6001 0.98282 2.6002-0.0491 0.90008-0.39313 1.6501-0.98282 2.2502-0.68797 0.70006-1.4742 1.0001-2.4079 1.0501-0.93368 0-1.7199-0.30002-2.3588-1.0001-0.63883-0.65005-0.98282-1.4501-0.98282-2.4002 0-0.75006 0.19656-1.3501 0.54055-1.9002z" clip-rule="evenodd" fill-rule="evenodd" stroke-width=".49571"/>
      <g transform="matrix(.49141 0 0 .50004 -.34399 -.35003)">
         <polyline class="st1" points="146.1 72 170 95.9 168.4 97.5 144.5 73.6" clip-rule="evenodd" fill-rule="evenodd"/>
      </g>
      <g transform="matrix(.49141 0 0 .42166 -.34399 11.337)">
         <polyline class="st0" points="143.1 173 143.1 149.1 144.7 149.1 144.7 173"/>
      </g>
      <g transform="matrix(.47036 -.14227 .14477 .47863 -23.35 32.507)">
         <g transform="matrix(.43065 -.9763 1.0109 .43065 52.93 276.15)">
            <path class="st3" d="m205.93 212.02h-1.4734c-0.21048 0.63146-0.42097 1.1577-0.94719 1.5787-0.73671 0.73671-1.5787 1.0524-2.6311 1.0524s-1.8944-0.31573-2.6311-1.0524-1.0524-1.5787-1.0524-2.6311c0-0.9472 0.31573-1.7892 1.0524-2.5259s1.5787-1.0524 2.6311-1.0524 1.8944 0.31573 2.6311 1.0524c0.52622 0.42097 0.73671 1.0524 0.94719 1.5787h1.3682c-0.21049-0.9472-0.63147-1.8944-1.3682-2.6311-0.94719-1.0524-2.2101-1.4734-3.5783-1.4734-1.5787 0-2.8416 0.52622-3.7888 1.6839-0.84195 1.0524-1.2629 2.1049-1.2629 3.3678 0 1.4734 0.52622 2.6311 1.4734 3.6835s2.2101 1.4734 3.5783 1.4734c1.3682 0 2.6311-0.52622 3.5783-1.4734 0.84196-0.73671 1.2629-1.5787 1.4734-2.6311z" stroke-width="1.0524"/>
            <g transform="matrix(1.0524 0 0 1.0524 -10.03 -13.623)">
               <polyline class="st3" points="196.9 212.7 173.1 212.7 173.1 214.3 196.9 214.3"/>
            </g>
            <path class="st3" d="m120.19 211.97h1.4c0.2 0.6 0.4 1.1 0.9 1.5 0.7 0.7 1.5 1 2.5 1s1.8-0.3 2.5-1 1-1.5 1-2.5c0-0.9-0.3-1.7-1-2.4s-1.5-1-2.5-1-1.8 0.3-2.5 1c-0.5 0.4-0.7 1-0.9 1.5h-1.3c0.2-0.9 0.6-1.8 1.3-2.5 0.9-1 2.1-1.4 3.4-1.4 1.5 0 2.7 0.5 3.6 1.6 0.8 1 1.2 2 1.2 3.2 0 1.4-0.5 2.5-1.4 3.5s-2.1 1.4-3.4 1.4-2.5-0.5-3.4-1.4c-0.8-0.7-1.2-1.5-1.4-2.5z"/>
            <g transform="matrix(1.0524 0 0 1.0524 -9.7088 -13.625)">
               <polyline class="st3" points="131.5 212.7 155.3 212.7 155.3 214.3 131.5 214.3"/>
            </g>
            <path class="st0" d="m165.1 254.5v-1.4c0.6-0.2 1.1-0.4 1.5-0.9 0.7-0.7 1-1.5 1-2.5s-0.3-1.8-1-2.5-1.5-1-2.5-1c-0.9 0-1.7 0.3-2.4 1s-1 1.5-1 2.5 0.3 1.8 1 2.5c0.4 0.5 1 0.7 1.5 0.9v1.3c-0.9-0.2-1.8-0.6-2.5-1.3-1-0.9-1.4-2.1-1.4-3.4 0-1.5 0.5-2.7 1.6-3.6 1-0.8 2-1.2 3.2-1.2 1.4 0 2.5 0.5 3.5 1.4s1.4 2.1 1.4 3.4-0.5 2.5-1.4 3.4c-0.7 0.7-1.5 1.2-2.5 1.4z"/>
            <g transform="matrix(1.0524 0 0 1.0524 -10.03 -13.623)">
               <polyline class="st0" points="163.4 246.2 163.4 222.4 165 222.4 165 246.2"/>
            </g>
            <path class="st2" d="m194.09 180.78-1.0524 1.0524c0.31573 0.52622 0.42097 1.1577 0.42097 1.7892 0 0.9472-0.42097 1.8944-1.1577 2.6311s-1.5787 1.0524-2.6311 1.1577c-0.94719 0-1.8944-0.31573-2.6311-1.0524-0.63146-0.63147-1.0524-1.4734-1.0524-2.5259s0.31573-1.8944 1.1577-2.6311c0.73671-0.73671 1.5787-1.0524 2.5259-1.0524 0.63147 0 1.2629 0.10525 1.7892 0.52622l1.0524-1.0524c-0.84196-0.63146-1.7892-0.84195-2.8416-0.84195-1.3682 0-2.6311 0.42097-3.5783 1.4734-1.1577 1.1577-1.5787 2.4206-1.4734 3.894 0.10525 1.3682 0.63147 2.4206 1.4734 3.3678 1.0524 1.0524 2.2101 1.4734 3.5783 1.5787 1.3682 0 2.6311-0.42097 3.5783-1.4734 0.94719-0.9472 1.4734-2.2101 1.4734-3.5783 0.31574-1.4734 0-2.4206-0.63146-3.2626z" stroke-width="1.0524"/>
            <g transform="matrix(1.0524 0 0 1.0524 -10.03 -13.623)">
               <polyline class="st2" points="186.8 189.8 169.9 206.7 171.1 207.8 187.9 190.9"/>
            </g>
            <path class="st2" d="m132.41 242.68 1.0524-1.0524c0.52623 0.31573 1.1577 0.42098 1.7892 0.42098 0.94719 0 1.8944-0.42098 2.6311-1.1577s1.0524-1.5787 1.1577-2.6311c0-0.9472-0.31573-1.8944-1.0524-2.6311-0.63146-0.63146-1.4734-1.0524-2.5259-1.0524s-1.8944 0.31573-2.6311 1.1577c-0.73671 0.73671-1.0524 1.5787-1.0524 2.5259 0 0.63146 0.10524 1.2629 0.52622 1.7892l-1.0524 1.0524c-0.63147-0.84195-0.84196-1.7892-0.84196-2.8416 0-1.3682 0.42098-2.6311 1.4734-3.5783 1.1577-1.1577 2.4206-1.5787 3.894-1.4734 1.3682 0.10524 2.4206 0.63146 3.3678 1.4734 1.0524 1.0524 1.4734 2.2101 1.5787 3.5783 0 1.3682-0.42098 2.6311-1.4734 3.5783-0.94719 0.9472-2.2101 1.4734-3.5783 1.4734-1.4734 0.21049-2.4206 0-3.2626-0.63147z" stroke-width="1.0524"/>
            <g transform="matrix(1.0524 0 0 1.0524 -10.03 -13.623)">
               <polyline class="st2" points="140.5 236.1 157.4 219.2 158.5 220.4 141.6 237.2"/>
            </g>
            <path class="st1" d="m192.9 242.61-1.0524-1.0524c-0.52622 0.31573-1.1577 0.42098-1.7892 0.42098-0.9472 0-1.8944-0.42098-2.6311-1.1577s-1.0524-1.5787-1.1577-2.6311c0-0.9472 0.31574-1.8944 1.0524-2.6311 0.63147-0.63146 1.4734-1.0524 2.5259-1.0524 1.0524 0 1.8944 0.31573 2.6311 1.1577 0.73671 0.73671 1.0524 1.5787 1.0524 2.5259 0 0.63146-0.10524 1.2629-0.52622 1.7892l1.0524 1.0524c0.63147-0.84195 0.84195-1.7892 0.84195-2.8416 0-1.3682-0.42097-2.6311-1.4734-3.5783-1.1577-1.1577-2.4206-1.5787-3.894-1.4734-1.3682 0.10524-2.4206 0.63146-3.3678 1.4734-1.0524 1.0524-1.4734 2.2101-1.5787 3.5783 0 1.3682 0.42097 2.6311 1.4734 3.5783 0.9472 0.9472 2.2101 1.4734 3.5783 1.4734 1.4734 0.21049 2.4206 0 3.2626-0.63147z" clip-rule="evenodd" fill-rule="evenodd" stroke-width="1.0524"/>
            <g transform="matrix(1.0524 0 0 1.0524 -10.03 -13.623)">
               <polyline class="st1" points="187.9 236.1 171 219.2 169.9 220.4 186.8 237.2" clip-rule="evenodd" fill-rule="evenodd"/>
            </g>
            <path class="st1" d="m131.63 181.29 1.0524 1.0524c-0.31573 0.52622-0.42098 1.1577-0.42098 1.7892 0 0.9472 0.42098 1.8944 1.1577 2.6311s1.5787 1.0524 2.6311 1.1577c0.9472 0 1.8944-0.31573 2.6311-1.0524 0.63146-0.63147 1.0524-1.4734 1.0524-2.5259s-0.31573-1.8944-1.1577-2.6311c-0.73671-0.73671-1.5787-1.0524-2.5259-1.0524-0.63146 0-1.2629 0.10525-1.7892 0.52622l-1.0524-1.0524c0.84195-0.63146 1.7892-0.84195 2.8416-0.84195 1.3682 0 2.6311 0.42097 3.5783 1.4734 1.1577 1.1577 1.5787 2.4206 1.4734 3.894-0.10524 1.3682-0.63146 2.4206-1.4734 3.3678-1.0524 1.0524-2.2101 1.4734-3.5783 1.5787-1.3682 0-2.6311-0.42097-3.5783-1.4734-0.9472-0.9472-1.4734-2.2101-1.4734-3.5783-0.31573-1.4734 0-2.4206 0.63147-3.2626z" clip-rule="evenodd" fill-rule="evenodd" stroke-width="1.0524"/>
            <g transform="matrix(1.0524 0 0 1.0524 -10.03 -13.623)">
               <polyline class="st1" points="141.6 189.8 158.5 206.7 157.3 207.8 140.5 190.9" clip-rule="evenodd" fill-rule="evenodd"/>
            </g>
            <path class="st1" d="m131.63 181.29 1.0524 1.0524c-0.31573 0.52622-0.42098 1.1577-0.42098 1.7892 0 0.9472 0.42098 1.8944 1.1577 2.6311s1.5787 1.0524 2.6311 1.1577c0.9472 0 1.8944-0.31573 2.6311-1.0524 0.63146-0.63147 1.0524-1.4734 1.0524-2.5259s-0.31573-1.8944-1.1577-2.6311c-0.73671-0.73671-1.5787-1.0524-2.5259-1.0524-0.63146 0-1.2629 0.10525-1.7892 0.52622l-1.0524-1.0524c0.84195-0.63146 1.7892-0.84195 2.8416-0.84195 1.3682 0 2.6311 0.42097 3.5783 1.4734 1.1577 1.1577 1.5787 2.4206 1.4734 3.894-0.10524 1.3682-0.63146 2.4206-1.4734 3.3678-1.0524 1.0524-2.2101 1.4734-3.5783 1.5787-1.3682 0-2.6311-0.42097-3.5783-1.4734-0.9472-0.9472-1.4734-2.2101-1.4734-3.5783-0.31573-1.4734 0-2.4206 0.63147-3.2626z" clip-rule="evenodd" fill-rule="evenodd" stroke-width="1.0524"/>
            <g transform="matrix(1.0524 0 0 1.0524 -10.03 -13.623)">
               <polyline class="st1" points="141.6 189.8 158.5 206.7 157.3 207.8 140.5 190.9" clip-rule="evenodd" fill-rule="evenodd"/>
            </g>
            <circle class="st1" cx="141.42" cy="219.91" r="2.1049" clip-rule="evenodd" fill-rule="evenodd" stroke-width="1.0524"/>
            <g>
               <polygon class="st4" points=""/>
               <polygon class="st4" points=""/>
               <polygon class="st4" points=""/>
               <polygon class="st4" points=""/>
               <polygon class="st4" points=""/>
               <polygon class="st4" points=""/>
               <polygon class="st4" points=""/>
               <polygon class="st4" points=""/>
               <polygon class="st4" points=""/>
               <polygon class="st4" points=""/>
               <polygon class="st4" points=""/>
               <polygon class="st4" points=""/>
               <polygon class="st4" points="163.3 172.8 163.2 172.8"/>
               <polygon class="st4" points=""/>
               <polygon class="st4" points=""/>
               <polygon class="st4" points=""/>
            </g>
            <circle class="st1" cx="184.15" cy="202.23" r="2.1049" clip-rule="evenodd" fill-rule="evenodd" stroke-width="1.0524"/>
            <circle class="st1" cx="171.62" cy="232.44" r="2.1049" clip-rule="evenodd" fill-rule="evenodd" stroke-width="1.0524"/>
         </g>
         <g transform="translate(-14.854 -51.583)">
            <circle class="st0" cx="164.2" cy="213.5" r="5.2"/>
            <path class="st3" d="m164.2 223.6c5.6 0 10.1-4.5 10.1-10.1s-4.5-10.1-10.1-10.1-10.1 4.5-10.1 10.1 4.5 10.1 10.1 10.1zm-5.7-15.8c1.5-1.5 3.5-2.4 5.7-2.4s4.2 0.9 5.7 2.4 2.4 3.5 2.4 5.7-0.9 4.2-2.4 5.7-3.5 2.4-5.7 2.4-4.2-0.9-5.7-2.4-2.4-3.5-2.4-5.7 0.9-4.3 2.4-5.7z"/>
         </g>
      </g>
      <g transform="matrix(.49141 0 0 .50004 -.34399 -.35003)">
         <path class="st3" d="m73.4 41.8h1.4c0.2-0.6 0.5-1.1 0.9-1.5 0.7-0.7 1.5-1 2.6-1 1 0 1.9 0.3 2.6 1s1 1.5 1 2.5c0 0.9-0.3 1.7-1 2.4s-1.5 1.1-2.6 1.1c-1 0-1.9-0.3-2.5-1-0.5-0.5-0.8-1-0.9-1.6h-1.4c0.2 1 0.6 1.8 1.4 2.6 1 1 2.1 1.5 3.5 1.5 1.5 0 2.8-0.5 3.7-1.6 0.9-1 1.3-2.1 1.3-3.3 0-1.4-0.5-2.6-1.4-3.6-1-1-2.1-1.5-3.5-1.5s-2.5 0.5-3.5 1.5c-1 0.7-1.5 1.6-1.6 2.5z"/>
         <polyline class="st3" points="81.9 43.6 106.4 43.6 106.4 42 81.9 42"/>
         <path class="st3" d="m157.7 41.8h-1.4c-0.2-0.6-0.5-1.1-0.9-1.5-0.7-0.7-1.5-1-2.6-1-1 0-1.9 0.3-2.6 1s-1 1.5-1 2.5c0 0.9 0.3 1.7 1 2.4s1.5 1.1 2.6 1.1c1 0 1.9-0.3 2.5-1 0.5-0.5 0.8-1 0.9-1.6h1.4c-0.2 1-0.6 1.8-1.4 2.6-1 1-2.1 1.5-3.5 1.5-1.5 0-2.8-0.5-3.7-1.6-0.9-1-1.3-2.1-1.3-3.3 0-1.4 0.5-2.6 1.4-3.6 1-1 2.1-1.5 3.5-1.5s2.5 0.5 3.5 1.5c0.9 0.7 1.4 1.6 1.6 2.5z"/>
         <polyline class="st3" points="149.2 43.6 124.7 43.6 124.7 42 149.2 42"/>
         <polyline class="st0" points="116.3 89.6 116.3 51.9 114.7 51.9 114.7 89.6"/>
         <path class="st0" d="m114.6 0.7v1.3c-0.6 0.2-1.1 0.5-1.6 1-0.7 0.7-1 1.5-1 2.6 0 1 0.3 1.9 1 2.6s1.5 1 2.5 1c0.9 0 1.7-0.3 2.4-1s1.1-1.5 1.1-2.6c0-1-0.3-1.9-1-2.5-0.5-0.5-1-0.8-1.6-0.9v-1.5c1 0.2 1.8 0.6 2.6 1.4 1 1 1.5 2.1 1.5 3.5 0 1.5-0.5 2.8-1.6 3.7-1 0.9-2.1 1.3-3.3 1.3-1.4 0-2.6-0.5-3.6-1.4-1-1-1.5-2.1-1.5-3.5s0.5-2.5 1.5-3.5c0.7-0.9 1.6-1.4 2.6-1.5z"/>
         <polyline class="st0" points="116.3 9.1 116.3 33.7 114.7 33.7 114.7 9.1"/>
         <path class="st2" d="m85 71.9 1-1c-0.3-0.5-0.5-1.1-0.4-1.7 0-1 0.4-1.8 1.1-2.5s1.6-1.1 2.5-1.1c1 0 1.8 0.4 2.5 1.1s1 1.5 1 2.5-0.3 1.8-1.1 2.6c-0.7 0.7-1.6 1.1-2.5 1.1-0.7 0-1.2-0.2-1.8-0.5l-1 1c0.8 0.6 1.7 0.9 2.8 0.9 1.4 0 2.5-0.5 3.5-1.4 1.1-1.1 1.6-2.3 1.5-3.8-0.1-1.3-0.6-2.4-1.4-3.3-1-1-2.2-1.5-3.5-1.5-1.4 0-2.5 0.5-3.5 1.4-1 1-1.4 2.1-1.4 3.5-0.1 1 0.2 1.9 0.7 2.7z"/>
         <polyline class="st2" points="92.3 67.2 109.6 49.8 108.5 48.7 91.1 66"/>
         <path class="st2" d="m144.6 12.3-1 1c-0.5-0.3-1.1-0.5-1.7-0.4-1 0-1.8 0.4-2.5 1.1s-1.1 1.6-1.1 2.5c0 1 0.4 1.8 1.1 2.5s1.5 1 2.5 1 1.8-0.3 2.6-1.1c0.7-0.7 1.1-1.6 1.1-2.5 0-0.7-0.2-1.2-0.5-1.8l1-1c0.6 0.8 0.9 1.7 0.9 2.8 0 1.4-0.5 2.5-1.4 3.5-1.1 1.1-2.3 1.6-3.8 1.5-1.3-0.1-2.4-0.6-3.3-1.4-1-1-1.5-2.2-1.5-3.5 0-1.4 0.5-2.5 1.4-3.5 1-1 2.1-1.4 3.5-1.4 1-0.1 1.9 0.2 2.7 0.7z"/>
         <polyline class="st2" points="139.9 19.6 122.5 36.9 121.4 35.8 138.7 18.4"/>
         <path class="st1" d="m86.4 12.3 1 1c0.5-0.3 1.1-0.5 1.7-0.4 1 0 1.8 0.4 2.5 1.1s1.1 1.6 1.1 2.5c0 1-0.4 1.8-1.1 2.5s-1.5 1-2.5 1-1.8-0.3-2.6-1.1c-0.7-0.7-1.1-1.6-1.1-2.5 0-0.7 0.2-1.2 0.5-1.8l-1-1c-0.6 0.8-0.9 1.7-0.9 2.8 0 1.4 0.5 2.5 1.4 3.5 1.1 1.1 2.3 1.6 3.8 1.5 1.3-0.1 2.4-0.6 3.3-1.4 1-1 1.5-2.2 1.5-3.5 0-1.4-0.5-2.5-1.4-3.5-1-1-2.1-1.4-3.5-1.4-1-0.1-1.9 0.2-2.7 0.7z" clip-rule="evenodd" fill-rule="evenodd"/>
         <polyline class="st1" points="91.2 19.6 108.5 36.9 109.7 35.8 92.3 18.4" clip-rule="evenodd" fill-rule="evenodd"/>
         <circle class="st1" cx="136.4" cy="34.2" r="2" clip-rule="evenodd" fill-rule="evenodd"/>
         <g>
            <polygon class="st4" points=""/>
            <polygon class="st4" points=""/>
            <polygon class="st4" points=""/>
            <polygon class="st4" points=""/>
            <polygon class="st4" points=""/>
            <polygon class="st4" points=""/>
            <polygon class="st4" points=""/>
            <polygon class="st4" points=""/>
            <polygon class="st4" points=""/>
            <polygon class="st4" points=""/>
            <polygon class="st4" points=""/>
            <polygon class="st4" points=""/>
            <polygon class="st4" points="116.5 84.7 116.5 84.6"/>
            <polygon class="st4" points=""/>
            <polygon class="st4" points=""/>
            <polygon class="st4" points=""/>
         </g>
         <g clip-rule="evenodd" fill-rule="evenodd">
            <circle class="st1" cx="124.2" cy="63.7" r="2"/>
            <circle class="st1" cx="94.6" cy="51.5" r="2"/>
            <circle class="st1" cx="106.9" cy="21.9" r="2"/>
         </g>
         <circle class="st0" cx="115.5" cy="42.8" r="5.3"/>
         <path class="st3" d="m115.5 32.5c-5.7 0-10.4 4.6-10.4 10.4 0 5.7 4.6 10.4 10.4 10.4 5.7 0 10.4-4.6 10.4-10.4s-4.7-10.4-10.4-10.4zm5.9 16.2c-1.5 1.5-3.6 2.4-5.9 2.4s-4.4-0.9-5.9-2.4-2.4-3.6-2.4-5.9 0.9-4.4 2.4-5.9 3.6-2.4 5.9-2.4 4.4 0.9 5.9 2.4 2.4 3.6 2.4 5.9-0.9 4.4-2.4 5.9z"/>
      </g>
      <g transform="matrix(.49141 0 0 .50004 -.34399 -.35003)">
         <path class="st3" d="m0.7 179.2h1.4c0.2 0.6 0.4 1.1 0.9 1.5 0.7 0.7 1.5 1 2.5 1s1.8-0.3 2.5-1 1-1.5 1-2.5c0-0.9-0.3-1.7-1-2.4s-1.5-1-2.5-1-1.8 0.3-2.5 1c-0.5 0.4-0.7 1-0.9 1.5h-1.4c0.2-0.9 0.6-1.8 1.3-2.5 0.9-1 2.1-1.4 3.4-1.4 1.5 0 2.7 0.5 3.6 1.6 0.8 1 1.2 2 1.2 3.2 0 1.4-0.5 2.5-1.4 3.5s-2.1 1.4-3.4 1.4-2.5-0.5-3.4-1.4c-0.7-0.8-1.1-1.6-1.3-2.5z"/>
         <polyline class="st3" points="9 177.5 32.8 177.5 32.8 179.1 9 179.1"/>
         <path class="st0" d="m42.6 137.3v1.4c0.6 0.2 1.1 0.4 1.5 0.9 0.7 0.7 1 1.5 1 2.5s-0.3 1.8-1 2.5-1.5 1-2.5 1c-0.9 0-1.7-0.3-2.4-1s-1-1.5-1-2.5 0.3-1.8 1-2.5c0.4-0.5 1-0.7 1.5-0.9v-1.3c-0.9 0.2-1.8 0.6-2.5 1.3-1 0.9-1.4 2.1-1.4 3.4 0 1.5 0.5 2.7 1.6 3.6 1 0.8 2 1.2 3.2 1.2 1.4 0 2.5-0.5 3.5-1.4s1.4-2.1 1.4-3.4-0.5-2.5-1.4-3.4c-0.7-0.8-1.5-1.3-2.5-1.4z"/>
         <polyline class="st0" points="40.9 145.5 40.9 169.4 42.5 169.4 42.5 145.5"/>
         <path class="st0" d="m42.6 219.2v-1.4c0.6-0.2 1.1-0.4 1.5-0.9 0.7-0.7 1-1.5 1-2.5s-0.3-1.8-1-2.5-1.5-1-2.5-1c-0.9 0-1.7 0.3-2.4 1s-1 1.5-1 2.5 0.3 1.8 1 2.5c0.4 0.5 1 0.7 1.5 0.9v1.3c-0.9-0.2-1.8-0.6-2.5-1.3-1-0.9-1.4-2.1-1.4-3.4 0-1.5 0.5-2.7 1.6-3.6 1-0.8 2-1.2 3.2-1.2 1.4 0 2.5 0.5 3.5 1.4s1.4 2.1 1.4 3.4-0.5 2.5-1.4 3.4c-0.7 0.8-1.5 1.2-2.5 1.4z"/>
         <polyline class="st0" points="40.9 211 40.9 187.1 42.5 187.1 42.5 211"/>
         <path class="st2" d="m13.4 207.9 1-1c0.5 0.3 1.1 0.4 1.7 0.4 0.9 0 1.8-0.4 2.5-1.1s1-1.5 1.1-2.5c0-0.9-0.3-1.8-1-2.5-0.6-0.6-1.4-1-2.4-1s-1.8 0.3-2.5 1.1c-0.7 0.7-1 1.5-1 2.4 0 0.6 0.1 1.2 0.5 1.7l-1 1c-0.6-0.8-0.8-1.7-0.8-2.7 0-1.3 0.4-2.5 1.4-3.4 1.1-1.1 2.3-1.5 3.7-1.4 1.3 0.1 2.3 0.6 3.2 1.4 1 1 1.4 2.1 1.5 3.4 0 1.3-0.4 2.5-1.4 3.4-0.9 0.9-2.1 1.4-3.4 1.4-1.4 0.2-2.3-0.1-3.1-0.6z"/>
         <polyline class="st2" points="18 200.8 34.9 184 36 185.1 19.1 202"/>
         <path class="st1" d="m70 207.9-1-1c-0.5 0.3-1.1 0.4-1.7 0.4-0.9 0-1.8-0.4-2.5-1.1s-1-1.5-1.1-2.5c0-0.9 0.3-1.8 1-2.5 0.6-0.6 1.4-1 2.4-1s1.8 0.3 2.5 1.1c0.7 0.7 1 1.5 1 2.4 0 0.6-0.1 1.2-0.5 1.7l1 1c0.6-0.8 0.8-1.7 0.8-2.7 0-1.3-0.4-2.5-1.4-3.4-1.1-1.1-2.3-1.5-3.7-1.4-1.3 0.1-2.3 0.6-3.2 1.4-1 1-1.4 2.1-1.5 3.4 0 1.3 0.4 2.5 1.4 3.4 0.9 0.9 2.1 1.4 3.4 1.4 1.4 0.2 2.3-0.1 3.1-0.6z" clip-rule="evenodd" fill-rule="evenodd"/>
         <polyline class="st1" points="65.4 200.8 48.5 184 47.4 185.1 64.3 202" clip-rule="evenodd" fill-rule="evenodd"/>
         <path class="st1" d="m12.1 149.9 1 1c-0.3 0.5-0.4 1.1-0.4 1.7 0 0.9 0.4 1.8 1.1 2.5s1.5 1 2.5 1.1c0.9 0 1.8-0.3 2.5-1 0.6-0.6 1-1.4 1-2.4s-0.3-1.8-1.1-2.5c-0.7-0.7-1.5-1-2.4-1-0.6 0-1.2 0.1-1.7 0.5l-1-1c0.8-0.6 1.7-0.8 2.7-0.8 1.3 0 2.5 0.4 3.4 1.4 1.1 1.1 1.5 2.3 1.4 3.7-0.1 1.3-0.6 2.3-1.4 3.2-1 1-2.1 1.4-3.4 1.5-1.3 0-2.5-0.4-3.4-1.4-0.9-0.9-1.4-2.1-1.4-3.4-0.3-1.4 0-2.3 0.6-3.1z" clip-rule="evenodd" fill-rule="evenodd"/>
         <polyline class="st1" points="19.1 154.6 36 171.4 34.8 172.6 18 155.7" clip-rule="evenodd" fill-rule="evenodd"/>
         <path class="st1" d="m12.1 149.9 1 1c-0.3 0.5-0.4 1.1-0.4 1.7 0 0.9 0.4 1.8 1.1 2.5s1.5 1 2.5 1.1c0.9 0 1.8-0.3 2.5-1 0.6-0.6 1-1.4 1-2.4s-0.3-1.8-1.1-2.5c-0.7-0.7-1.5-1-2.4-1-0.6 0-1.2 0.1-1.7 0.5l-1-1c0.8-0.6 1.7-0.8 2.7-0.8 1.3 0 2.5 0.4 3.4 1.4 1.1 1.1 1.5 2.3 1.4 3.7-0.1 1.3-0.6 2.3-1.4 3.2-1 1-2.1 1.4-3.4 1.5-1.3 0-2.5-0.4-3.4-1.4-0.9-0.9-1.4-2.1-1.4-3.4-0.3-1.4 0-2.3 0.6-3.1z" clip-rule="evenodd" fill-rule="evenodd"/>
         <polyline class="st1" points="19.1 154.6 36 171.4 34.8 172.6 18 155.7" clip-rule="evenodd" fill-rule="evenodd"/>
         <circle class="st1" cx="21.4" cy="186.6" r="2" clip-rule="evenodd" fill-rule="evenodd"/>
         <g>
            <polygon class="st4" points=""/>
            <polygon class="st4" points=""/>
            <polygon class="st4" points=""/>
            <polygon class="st4" points=""/>
            <polygon class="st4" points=""/>
            <polygon class="st4" points=""/>
            <polygon class="st4" points=""/>
            <polygon class="st4" points=""/>
            <polygon class="st4" points=""/>
            <polygon class="st4" points=""/>
            <polygon class="st4" points=""/>
            <polygon class="st4" points=""/>
            <polygon class="st4" points="40.7 137.6 40.8 137.6"/>
            <polygon class="st4" points=""/>
            <polygon class="st4" points=""/>
            <polygon class="st4" points=""/>
         </g>
         <g clip-rule="evenodd" fill-rule="evenodd">
            <circle class="st1" cx="33.3" cy="157.9" r="2"/>
            <circle class="st1" cx="62" cy="169.8" r="2"/>
            <circle class="st1" cx="50.1" cy="198.6" r="2"/>
         </g>
      </g>
      <g transform="matrix(.49141 0 0 .50004 -.34399 -.35003)">
         <circle class="st0" cx="41.7" cy="178.2" r="5.2"/>
         <path class="st3" d="m41.7 188.3c5.6 0 10.1-4.5 10.1-10.1s-4.5-10.1-10.1-10.1-10.1 4.5-10.1 10.1 4.5 10.1 10.1 10.1zm-5.7-15.8c1.5-1.5 3.5-2.4 5.7-2.4s4.2 0.9 5.7 2.4 2.4 3.5 2.4 5.7-0.9 4.2-2.4 5.7-3.5 2.4-5.7 2.4-4.2-0.9-5.7-2.4-2.4-3.5-2.4-5.7 0.9-4.2 2.4-5.7z"/>
      </g>
      <g transform="matrix(.49141 0 0 .50004 -1.6216 -.90008)">
         <circle class="st0" cx="83.8" cy="138" r="7.3"/>
         <path class="st3" d="m83.8 152.3c7.9 0 14.3-6.4 14.3-14.3s-6.4-14.3-14.3-14.3-14.3 6.4-14.3 14.3 6.4 14.3 14.3 14.3zm-8.1-22.4c2.1-2.1 4.9-3.3 8.1-3.3s6 1.3 8.1 3.3c2.1 2.1 3.3 4.9 3.3 8.1s-1.3 6-3.3 8.1c-2.1 2.1-4.9 3.3-8.1 3.3s-6-1.3-8.1-3.3c-2.1-2.1-3.3-4.9-3.3-8.1-0.1-3.1 1.2-6 3.3-8.1z"/>
      </g>
      <g transform="matrix(.49141 0 0 .50004 -.34399 -.35003)">
         <g>
            <polyline class="st2" points="170.7 108.9 149.9 129.6 151.5 131.2 172.3 110.5"/>
         </g>
      </g>
      <g transform="matrix(.49141 0 0 .50004 -.34399 -.35003)">
         <path class="st3" d="m143.9 149.5c6.3 0 11.5-5.1 11.5-11.5 0-6.3-5.1-11.5-11.5-11.5-6.3 0-11.5 5.1-11.5 11.5 0.1 6.4 5.2 11.5 11.5 11.5zm-6.5-17.9c1.7-1.7 4-2.7 6.5-2.7s4.8 1 6.5 2.7 2.7 4 2.7 6.5-1 4.8-2.7 6.5-4 2.7-6.5 2.7-4.8-1-6.5-2.7-2.7-4-2.7-6.5c0.1-2.5 1.1-4.8 2.7-6.5z"/>
      </g>
      <g transform="matrix(.49141 0 0 .50004 -.34399 -.35003)">
         <circle class="st0" cx="178.2" cy="102.9" r="5.9"/>
         <path class="st3" d="m178.2 114.4c6.3 0 11.5-5.1 11.5-11.5 0-6.3-5.1-11.5-11.5-11.5-6.3 0-11.5 5.1-11.5 11.5 0 6.3 5.2 11.5 11.5 11.5zm-6.5-18c1.7-1.7 4-2.7 6.5-2.7s4.8 1 6.5 2.7 2.7 4 2.7 6.5-1 4.8-2.7 6.5-4 2.7-6.5 2.7-4.8-1-6.5-2.7-2.7-4-2.7-6.5 1-4.8 2.7-6.5z"/>
      </g>
      <g transform="matrix(.49141 0 0 .50004 -.34399 -.35003)">
         <polyline class="st3" points="127.7 101.1 167.7 101.1 167.7 104.5 127.7 104.5"/>
      </g>
      <g transform="matrix(.49141 0 0 .50004 -.34399 -.35003)">
         <g>
            <polyline class="st2" points="47.3 171 72.1 146.2 73.7 147.9 49 172.7"/>
         </g>
      </g>
      <g transform="matrix(.49141 0 0 .50004 -.34399 -.35003)">
         <circle class="st0" cx="115" cy="102.6" r="7.3"/>
         <path class="st3" d="m115 116.9c7.9 0 14.3-6.4 14.3-14.3s-6.4-14.3-14.3-14.3-14.3 6.4-14.3 14.3 6.4 14.3 14.3 14.3zm-8.1-22.4c2.1-2.1 4.9-3.3 8.1-3.3s6 1.3 8.1 3.3c2.1 2.1 3.3 4.9 3.3 8.1s-1.3 6-3.3 8.1c-2.1 2.1-4.9 3.3-8.1 3.3s-6-1.3-8.1-3.3c-2.1-2.1-3.3-4.9-3.3-8.1s1.2-6 3.3-8.1z"/>
      </g>
   </g>
   <style type="text/css">.st0{fill:#007AFF;}
	.st1{fill-rule:evenodd;clip-rule:evenodd;fill:#007AFF;}</style>
   <g>
      <g transform="matrix(.061189 0 0 .061172 36.913 44.704)">
         <rect class="st0" x="167" y="318" width="37" height="147"/>
         <path class="st0" d="m315.9 315c-7 0-13.8 1.4-20.5 4.1-6.7 2.8-14.2 7.6-22.4 14.7v-15.8h-37v147h37v-58.1c0-15.1 0.5-24.9 1.5-29.4 2-8.7 5.6-15.4 10.7-20.4 5.2-4.9 11.3-7.4 18.6-7.4 5.5 0 10.2 1.5 13.9 4.5 3.8 3 6.4 7.3 7.9 12.9 1.5 5.7 2.3 17.2 2.3 34.4v63.5h37v-96.7c0-16.8-4.2-29.5-12.6-38.2-9.9-10.1-22.1-15.1-36.4-15.1z"/>
         <path class="st0" d="m405.8 263.9c-6 4.8-9.5 11.3-10.5 19.5-0.6 3.6-0.9 15.1-1 34.6h-13.3v32h14v115h36v-115h24v-32h-21l0.1-18.4c0-4.2 0.7-7 2.1-8.4 1.9-1.8 5-2.7 9.2-2.7 3.3 0 7.5 0.8 12.6 2.3v-28.7c-10-3.6-18.9-5.4-26.8-5.4-11 0-19.5 2.4-25.4 7.2z"/>
         <path class="st0" d="m1037.5 320.8c-5.6 3.7-13.5 16.1-13.5 16.1v-18.9h-32v147h37v-58.8l0.5-7.1c0-20.4 1.9-34.1 5.7-41.1s8.4-10.5 13.9-10.5c2.7 0 6.1 1.1 10.3 3.2l11.1-31.6c-5.1-2.5-10-3.8-14.6-3.8-6.8 0-12.9 1.9-18.4 5.5z"/>
         <path class="st0" d="m1217 336.8c-13.5-14.3-29.9-21.5-49.2-21.5-8.9 0-17.3 1.7-25 5-7.8 3.3-15.1 8.3-21.8 14.9v-17.2h-37v201h37v-70.9c7.2 7.1 14.6 12.2 21.9 15.3 7.4 3.1 15.3 4.7 23.8 4.7 19.1 0 35.7-7.3 49.7-21.8 14-14.6 20.9-32.7 20.9-54.3 0-22.5-6.7-40.8-20.3-55.2zm-28.3 84.7c-7.8 7.9-17.5 11.8-28.9 11.8-11.8 0-21.6-3.9-29.4-11.5-7.8-7.7-11.7-17.8-11.7-30.4 0-12.2 3.9-22.1 11.7-29.8 7.8-7.6 17.6-11.4 29.4-11.4 11.7 0 21.4 3.9 29.1 11.6s11.5 17.6 11.5 29.7c0 12.2-3.9 22.2-11.7 30z"/>
         <path class="st0" d="m972.1 353.2c-7.2-12.2-17.2-22-30.1-29.1-12.9-7.2-26.6-10.7-41.2-10.7-20.2 0-38.1 6.9-53.7 20.6-2.3 2.1-4.5 4.3-6.6 6.5v-0.1l-75.2 79.7-0.5 0.6c-9.2 11.5-22.1 17.2-38.7 17.2-13.5 0-24.4-4.1-32.6-12.3-8.3-8.2-12.4-18.8-12.4-31.8 0-13.4 4.3-24.3 13-32.9 8.7-8.5 20.1-12.8 34.1-12.8 7.7 0 14.4 1.3 20.2 3.8 5.7 2.5 11.6 7.1 17.4 13.6l31.3-17.5c-7.5-11.1-17.2-19.7-29.1-25.7-11.8-6-25.2-9-40-9-16.1 0-30.6 3.5-43.6 10.6s-23.1 16.8-30.3 29.1c-7.2 12.4-10.8 25.9-10.8 40.5 0 21.2 7.4 39.7 22.2 55.5s35.2 23.7 61.3 23.7c28.9 0 51.3-10.5 67.2-31.4l27.6-32.8c2.9 15.6 10.2 29.3 22.2 41.1 15.7 15.5 34.7 23.2 56.9 23.2 15 0 28.9-3.5 41.4-10.5s22.4-16.7 29.7-29.2c7.2-12.4 10.9-25.8 10.9-40.1 0.2-14.3-3.4-27.5-10.6-39.8zm-39.4 72.2c-8.3 8.4-18.8 12.6-31.3 12.6s-22.9-4.2-31.1-12.5c-8.1-8.3-12.2-19.2-12.2-32.6 0-13 4.1-23.7 12.4-32.1 8.2-8.4 18.6-12.6 31.1-12.6 12.7 0 23.2 4.2 31.3 12.4 8.2 8.3 12.3 19.1 12.3 32.3s-4.2 24-12.5 32.5z"/>
      </g>
      <g transform="matrix(.49141 0 0 .50004 77.582 33.003)">
         <circle class="st0" cx="178.2" cy="102.9" r="5.9"/>
         <path class="st3" d="m178.2 114.4c6.3 0 11.5-5.1 11.5-11.5 0-6.3-5.1-11.5-11.5-11.5-6.3 0-11.5 5.1-11.5 11.5 0 6.3 5.2 11.5 11.5 11.5zm-6.5-18c1.7-1.7 4-2.7 6.5-2.7s4.8 1 6.5 2.7 2.7 4 2.7 6.5-1 4.8-2.7 6.5-4 2.7-6.5 2.7-4.8-1-6.5-2.7-2.7-4-2.7-6.5 1-4.8 2.7-6.5z"/>
      </g>
      <g transform="matrix(-.47219 0 0 -.48049 170.89 131.18)">
         <g transform="translate(14.881 12.584)">
            <path class="st3" d="m73.4 41.8h1.4c0.2-0.6 0.5-1.1 0.9-1.5 0.7-0.7 1.5-1 2.6-1 1 0 1.9 0.3 2.6 1s1 1.5 1 2.5c0 0.9-0.3 1.7-1 2.4s-1.5 1.1-2.6 1.1c-1 0-1.9-0.3-2.5-1-0.5-0.5-0.8-1-0.9-1.6h-1.4c0.2 1 0.6 1.8 1.4 2.6 1 1 2.1 1.5 3.5 1.5 1.5 0 2.8-0.5 3.7-1.6 0.9-1 1.3-2.1 1.3-3.3 0-1.4-0.5-2.6-1.4-3.6-1-1-2.1-1.5-3.5-1.5s-2.5 0.5-3.5 1.5c-1 0.7-1.5 1.6-1.6 2.5z"/>
            <polyline class="st3" points="81.9 43.6 106.4 43.6 106.4 42 81.9 42"/>
            <path class="st3" d="m157.7 41.8h-1.4c-0.2-0.6-0.5-1.1-0.9-1.5-0.7-0.7-1.5-1-2.6-1-1 0-1.9 0.3-2.6 1s-1 1.5-1 2.5c0 0.9 0.3 1.7 1 2.4s1.5 1.1 2.6 1.1c1 0 1.9-0.3 2.5-1 0.5-0.5 0.8-1 0.9-1.6h1.4c-0.2 1-0.6 1.8-1.4 2.6-1 1-2.1 1.5-3.5 1.5-1.5 0-2.8-0.5-3.7-1.6-0.9-1-1.3-2.1-1.3-3.3 0-1.4 0.5-2.6 1.4-3.6 1-1 2.1-1.5 3.5-1.5s2.5 0.5 3.5 1.5c0.9 0.7 1.4 1.6 1.6 2.5z"/>
            <polyline class="st3" points="149.2 43.6 124.7 43.6 124.7 42 149.2 42"/>
            <path class="st0" d="m114.6 0.7v1.3c-0.6 0.2-1.1 0.5-1.6 1-0.7 0.7-1 1.5-1 2.6 0 1 0.3 1.9 1 2.6s1.5 1 2.5 1c0.9 0 1.7-0.3 2.4-1s1.1-1.5 1.1-2.6c0-1-0.3-1.9-1-2.5-0.5-0.5-1-0.8-1.6-0.9v-1.5c1 0.2 1.8 0.6 2.6 1.4 1 1 1.5 2.1 1.5 3.5 0 1.5-0.5 2.8-1.6 3.7-1 0.9-2.1 1.3-3.3 1.3-1.4 0-2.6-0.5-3.6-1.4-1-1-1.5-2.1-1.5-3.5s0.5-2.5 1.5-3.5c0.7-0.9 1.6-1.4 2.6-1.5z"/>
            <polyline class="st0" points="116.3 9.1 116.3 33.7 114.7 33.7 114.7 9.1"/>
            <path class="st2" d="m84.245 72.456 1-1c-0.3-0.5-0.5-1.1-0.4-1.7 0-1 0.4-1.8 1.1-2.5s1.6-1.1 2.5-1.1c1 0 1.8 0.4 2.5 1.1s1 1.5 1 2.5-0.3 1.8-1.1 2.6c-0.7 0.7-1.6 1.1-2.5 1.1-0.7 0-1.2-0.2-1.8-0.5l-1 1c0.8 0.6 1.7 0.9 2.8 0.9 1.4 0 2.5-0.5 3.5-1.4 1.1-1.1 1.6-2.3 1.5-3.8-0.1-1.3-0.6-2.4-1.4-3.3-1-1-2.2-1.5-3.5-1.5-1.4 0-2.5 0.5-3.5 1.4-1 1-1.4 2.1-1.4 3.5-0.1 1 0.2 1.9 0.7 2.7z"/>
            <g transform="translate(-.56615 .37092)">
               <polyline class="st2" points="92.3 67.2 109.6 49.8 108.5 48.7 91.1 66"/>
            </g>
            <path class="st2" d="m144.6 12.3-1 1c-0.5-0.3-1.1-0.5-1.7-0.4-1 0-1.8 0.4-2.5 1.1s-1.1 1.6-1.1 2.5c0 1 0.4 1.8 1.1 2.5s1.5 1 2.5 1 1.8-0.3 2.6-1.1c0.7-0.7 1.1-1.6 1.1-2.5 0-0.7-0.2-1.2-0.5-1.8l1-1c0.6 0.8 0.9 1.7 0.9 2.8 0 1.4-0.5 2.5-1.4 3.5-1.1 1.1-2.3 1.6-3.8 1.5-1.3-0.1-2.4-0.6-3.3-1.4-1-1-1.5-2.2-1.5-3.5 0-1.4 0.5-2.5 1.4-3.5 1-1 2.1-1.4 3.5-1.4 1-0.1 1.9 0.2 2.7 0.7z"/>
            <polyline class="st2" points="139.9 19.6 122.5 36.9 121.4 35.8 138.7 18.4"/>
            <path class="st1" d="m86.4 12.3 1 1c0.5-0.3 1.1-0.5 1.7-0.4 1 0 1.8 0.4 2.5 1.1s1.1 1.6 1.1 2.5c0 1-0.4 1.8-1.1 2.5s-1.5 1-2.5 1-1.8-0.3-2.6-1.1c-0.7-0.7-1.1-1.6-1.1-2.5 0-0.7 0.2-1.2 0.5-1.8l-1-1c-0.6 0.8-0.9 1.7-0.9 2.8 0 1.4 0.5 2.5 1.4 3.5 1.1 1.1 2.3 1.6 3.8 1.5 1.3-0.1 2.4-0.6 3.3-1.4 1-1 1.5-2.2 1.5-3.5 0-1.4-0.5-2.5-1.4-3.5-1-1-2.1-1.4-3.5-1.4-1-0.1-1.9 0.2-2.7 0.7z" clip-rule="evenodd" fill-rule="evenodd"/>
            <polyline class="st1" points="91.2 19.6 108.5 36.9 109.7 35.8 92.3 18.4" clip-rule="evenodd" fill-rule="evenodd"/>
            <circle class="st1" cx="136.4" cy="34.2" r="2" clip-rule="evenodd" fill-rule="evenodd"/>
            <g>
               <polygon class="st4" points=""/>
               <polygon class="st4" points=""/>
               <polygon class="st4" points=""/>
               <polygon class="st4" points=""/>
               <polygon class="st4" points=""/>
               <polygon class="st4" points=""/>
               <polygon class="st4" points=""/>
               <polygon class="st4" points=""/>
               <polygon class="st4" points=""/>
               <polygon class="st4" points=""/>
               <polygon class="st4" points=""/>
               <polygon class="st4" points=""/>
               <polygon class="st4" points="116.5 84.6 116.5 84.7"/>
               <polygon class="st4" points=""/>
               <polygon class="st4" points=""/>
               <polygon class="st4" points=""/>
            </g>
            <g clip-rule="evenodd" fill-rule="evenodd">
               <circle class="st1" cx="124.2" cy="63.7" r="2"/>
               <circle class="st1" cx="94.6" cy="51.5" r="2"/>
               <circle class="st1" cx="106.9" cy="21.9" r="2"/>
            </g>
            <g transform="translate(.4893 43.44)">
               <polyline class="st0" points="116.3 9.1 116.3 33.7 114.7 33.7 114.7 9.1"/>
            </g>
            <g transform="matrix(2.6647 .97574 -2.1082 1.1961 -118.17 -124.05)">
               <polyline class="st3" points="149.2 43.6 124.7 43.6 124.7 42 149.2 42"/>
            </g>
         </g>
         <g transform="translate(15.681 13.784)">
            <circle class="st0" cx="115.5" cy="42.8" r="5.3"/>
            <path class="st3" d="m115.5 32.5c-5.7 0-10.4 4.6-10.4 10.4 0 5.7 4.6 10.4 10.4 10.4 5.7 0 10.4-4.6 10.4-10.4s-4.7-10.4-10.4-10.4zm5.9 16.2c-1.5 1.5-3.6 2.4-5.9 2.4s-4.4-0.9-5.9-2.4-2.4-3.6-2.4-5.9 0.9-4.4 2.4-5.9 3.6-2.4 5.9-2.4 4.4 0.9 5.9 2.4 2.4 3.6 2.4 5.9-0.9 4.4-2.4 5.9z"/>
         </g>
      </g>
      <g transform="matrix(.40731 0 0 .41447 36.344 41.451)">
         <path class="st3" d="m178.2 114.4c6.3 0 11.5-5.1 11.5-11.5 0-6.3-5.1-11.5-11.5-11.5-6.3 0-11.5 5.1-11.5 11.5 0 6.3 5.2 11.5 11.5 11.5zm-6.5-18c1.7-1.7 4-2.7 6.5-2.7s4.8 1 6.5 2.7 2.7 4 2.7 6.5-1 4.8-2.7 6.5-4 2.7-6.5 2.7-4.8-1-6.5-2.7-2.7-4-2.7-6.5 1-4.8 2.7-6.5z"/>
      </g>
   </g>
   <text x="115.74227" y="84.116798" fill="#000000" font-family="sans-serif" font-size="40px" letter-spacing="0px" word-spacing="0px" style="line-height:1.25" xml:space="preserve"><tspan x="115.74227" y="119.50742"/></text>
   <text x="75.620712" y="86.613808" fill="#1a1a1a" filter="url(#filter5834)" font-family="sans-serif" font-size="7.7225px" letter-spacing="0px" stroke-width=".19306" word-spacing="0px" style="line-height:1.25" xml:space="preserve"><tspan x="75.620712" y="86.613808" fill="#1a1a1a" font-family="sans-serif" font-weight="bold" stroke-width=".19306">DEVEL    PER TEAM </tspan></text>
</svg>
